<mxfile host="app.diagrams.net" agent="Mozilla/5.0 (Macintosh; Intel Mac OS X 10_15_7) AppleWebKit/537.36 (KHTML, like Gecko) Chrome/134.0.0.0 Safari/537.36" version="26.1.1">
  <diagram name="Page-1" id="LS3IWzedls0aWjBFt4Wk">
    <mxGraphModel dx="896" dy="497" grid="1" gridSize="10" guides="1" tooltips="1" connect="1" arrows="1" fold="1" page="1" pageScale="1" pageWidth="827" pageHeight="1169" math="0" shadow="0">
      <root>
        <mxCell id="0" />
        <mxCell id="1" parent="0" />
        <mxCell id="CXLPsVcfpxoKWbiTp8Id-1" value="CNC milled parts" style="text;html=1;align=center;verticalAlign=middle;whiteSpace=wrap;rounded=0;" vertex="1" parent="1">
          <mxGeometry x="40" y="40" width="120" height="40" as="geometry" />
        </mxCell>
        <mxCell id="CXLPsVcfpxoKWbiTp8Id-59" style="edgeStyle=orthogonalEdgeStyle;rounded=0;orthogonalLoop=1;jettySize=auto;html=1;entryX=0;entryY=0.5;entryDx=0;entryDy=0;" edge="1" parent="1" source="CXLPsVcfpxoKWbiTp8Id-2" target="CXLPsVcfpxoKWbiTp8Id-4">
          <mxGeometry relative="1" as="geometry" />
        </mxCell>
        <mxCell id="CXLPsVcfpxoKWbiTp8Id-2" value="Tires for Motorcycles" style="text;html=1;align=center;verticalAlign=middle;whiteSpace=wrap;rounded=0;" vertex="1" parent="1">
          <mxGeometry x="40" y="100" width="120" height="40" as="geometry" />
        </mxCell>
        <mxCell id="CXLPsVcfpxoKWbiTp8Id-3" value="Translation Services" style="text;html=1;align=center;verticalAlign=middle;whiteSpace=wrap;rounded=0;" vertex="1" parent="1">
          <mxGeometry x="40" y="160" width="120" height="40" as="geometry" />
        </mxCell>
        <mxCell id="CXLPsVcfpxoKWbiTp8Id-4" value="Embedding Model" style="rounded=1;whiteSpace=wrap;html=1;" vertex="1" parent="1">
          <mxGeometry x="220" y="80" width="200" height="80" as="geometry" />
        </mxCell>
        <mxCell id="CXLPsVcfpxoKWbiTp8Id-5" value="0.5" style="verticalLabelPosition=middle;verticalAlign=middle;html=1;shape=mxgraph.basic.rect;fillColor2=none;strokeWidth=1;size=10;indent=5;fontSize=11;align=center;labelPosition=center;" vertex="1" parent="1">
          <mxGeometry x="480" y="50" width="25" height="25" as="geometry" />
        </mxCell>
        <mxCell id="CXLPsVcfpxoKWbiTp8Id-6" value="0.91" style="verticalLabelPosition=middle;verticalAlign=middle;html=1;shape=mxgraph.basic.rect;fillColor2=none;strokeWidth=1;size=10;indent=5;fontSize=11;labelPosition=center;align=center;" vertex="1" parent="1">
          <mxGeometry x="505" y="50" width="25" height="25" as="geometry" />
        </mxCell>
        <mxCell id="CXLPsVcfpxoKWbiTp8Id-7" value="0.68" style="verticalLabelPosition=middle;verticalAlign=middle;html=1;shape=mxgraph.basic.rect;fillColor2=none;strokeWidth=1;size=10;indent=5;fontSize=11;labelPosition=center;align=center;" vertex="1" parent="1">
          <mxGeometry x="530" y="50" width="25" height="25" as="geometry" />
        </mxCell>
        <mxCell id="CXLPsVcfpxoKWbiTp8Id-8" value="0.84" style="verticalLabelPosition=middle;verticalAlign=middle;html=1;shape=mxgraph.basic.rect;fillColor2=none;strokeWidth=1;size=10;indent=5;fontSize=11;labelPosition=center;align=center;" vertex="1" parent="1">
          <mxGeometry x="555" y="50" width="25" height="25" as="geometry" />
        </mxCell>
        <mxCell id="CXLPsVcfpxoKWbiTp8Id-9" value="..." style="verticalLabelPosition=middle;verticalAlign=middle;html=1;shape=mxgraph.basic.rect;fillColor2=none;strokeWidth=1;size=10;indent=5;fontSize=11;labelPosition=center;align=center;" vertex="1" parent="1">
          <mxGeometry x="580" y="50" width="25" height="25" as="geometry" />
        </mxCell>
        <mxCell id="CXLPsVcfpxoKWbiTp8Id-10" value="0.99" style="verticalLabelPosition=middle;verticalAlign=middle;html=1;shape=mxgraph.basic.rect;fillColor2=none;strokeWidth=1;size=10;indent=5;fontSize=11;labelPosition=center;align=center;" vertex="1" parent="1">
          <mxGeometry x="605" y="50" width="25" height="25" as="geometry" />
        </mxCell>
        <mxCell id="CXLPsVcfpxoKWbiTp8Id-39" value="0.74" style="verticalLabelPosition=middle;verticalAlign=middle;html=1;shape=mxgraph.basic.rect;fillColor2=none;strokeWidth=1;size=10;indent=5;fontSize=11;align=center;labelPosition=center;" vertex="1" parent="1">
          <mxGeometry x="480" y="107.5" width="25" height="25" as="geometry" />
        </mxCell>
        <mxCell id="CXLPsVcfpxoKWbiTp8Id-40" value="0.1" style="verticalLabelPosition=middle;verticalAlign=middle;html=1;shape=mxgraph.basic.rect;fillColor2=none;strokeWidth=1;size=10;indent=5;fontSize=11;labelPosition=center;align=center;" vertex="1" parent="1">
          <mxGeometry x="505" y="107.5" width="25" height="25" as="geometry" />
        </mxCell>
        <mxCell id="CXLPsVcfpxoKWbiTp8Id-41" value="0.31" style="verticalLabelPosition=middle;verticalAlign=middle;html=1;shape=mxgraph.basic.rect;fillColor2=none;strokeWidth=1;size=10;indent=5;fontSize=11;labelPosition=center;align=center;" vertex="1" parent="1">
          <mxGeometry x="530" y="107.5" width="25" height="25" as="geometry" />
        </mxCell>
        <mxCell id="CXLPsVcfpxoKWbiTp8Id-42" value="0.75" style="verticalLabelPosition=middle;verticalAlign=middle;html=1;shape=mxgraph.basic.rect;fillColor2=none;strokeWidth=1;size=10;indent=5;fontSize=11;labelPosition=center;align=center;" vertex="1" parent="1">
          <mxGeometry x="555" y="107.5" width="25" height="25" as="geometry" />
        </mxCell>
        <mxCell id="CXLPsVcfpxoKWbiTp8Id-43" value="..." style="verticalLabelPosition=middle;verticalAlign=middle;html=1;shape=mxgraph.basic.rect;fillColor2=none;strokeWidth=1;size=10;indent=5;fontSize=11;labelPosition=center;align=center;" vertex="1" parent="1">
          <mxGeometry x="580" y="107.5" width="25" height="25" as="geometry" />
        </mxCell>
        <mxCell id="CXLPsVcfpxoKWbiTp8Id-44" value="0.31" style="verticalLabelPosition=middle;verticalAlign=middle;html=1;shape=mxgraph.basic.rect;fillColor2=none;strokeWidth=1;size=10;indent=5;fontSize=11;labelPosition=center;align=center;" vertex="1" parent="1">
          <mxGeometry x="605" y="107.5" width="25" height="25" as="geometry" />
        </mxCell>
        <mxCell id="CXLPsVcfpxoKWbiTp8Id-45" value="0.64" style="verticalLabelPosition=middle;verticalAlign=middle;html=1;shape=mxgraph.basic.rect;fillColor2=none;strokeWidth=1;size=10;indent=5;fontSize=11;align=center;labelPosition=center;" vertex="1" parent="1">
          <mxGeometry x="480" y="167.5" width="25" height="25" as="geometry" />
        </mxCell>
        <mxCell id="CXLPsVcfpxoKWbiTp8Id-46" value="0.84" style="verticalLabelPosition=middle;verticalAlign=middle;html=1;shape=mxgraph.basic.rect;fillColor2=none;strokeWidth=1;size=10;indent=5;fontSize=11;labelPosition=center;align=center;" vertex="1" parent="1">
          <mxGeometry x="505" y="167.5" width="25" height="25" as="geometry" />
        </mxCell>
        <mxCell id="CXLPsVcfpxoKWbiTp8Id-47" value="0.25" style="verticalLabelPosition=middle;verticalAlign=middle;html=1;shape=mxgraph.basic.rect;fillColor2=none;strokeWidth=1;size=10;indent=5;fontSize=11;labelPosition=center;align=center;" vertex="1" parent="1">
          <mxGeometry x="530" y="167.5" width="25" height="25" as="geometry" />
        </mxCell>
        <mxCell id="CXLPsVcfpxoKWbiTp8Id-48" value="0.78" style="verticalLabelPosition=middle;verticalAlign=middle;html=1;shape=mxgraph.basic.rect;fillColor2=none;strokeWidth=1;size=10;indent=5;fontSize=11;labelPosition=center;align=center;" vertex="1" parent="1">
          <mxGeometry x="555" y="167.5" width="25" height="25" as="geometry" />
        </mxCell>
        <mxCell id="CXLPsVcfpxoKWbiTp8Id-49" value="..." style="verticalLabelPosition=middle;verticalAlign=middle;html=1;shape=mxgraph.basic.rect;fillColor2=none;strokeWidth=1;size=10;indent=5;fontSize=11;labelPosition=center;align=center;" vertex="1" parent="1">
          <mxGeometry x="580" y="167.5" width="25" height="25" as="geometry" />
        </mxCell>
        <mxCell id="CXLPsVcfpxoKWbiTp8Id-50" value="0.14" style="verticalLabelPosition=middle;verticalAlign=middle;html=1;shape=mxgraph.basic.rect;fillColor2=none;strokeWidth=1;size=10;indent=5;fontSize=11;labelPosition=center;align=center;" vertex="1" parent="1">
          <mxGeometry x="605" y="167.5" width="25" height="25" as="geometry" />
        </mxCell>
        <mxCell id="CXLPsVcfpxoKWbiTp8Id-57" value="" style="endArrow=classic;html=1;rounded=0;exitX=1;exitY=0.5;exitDx=0;exitDy=0;entryX=0;entryY=0.25;entryDx=0;entryDy=0;" edge="1" parent="1" source="CXLPsVcfpxoKWbiTp8Id-1" target="CXLPsVcfpxoKWbiTp8Id-4">
          <mxGeometry width="50" height="50" relative="1" as="geometry">
            <mxPoint x="190" y="80" as="sourcePoint" />
            <mxPoint x="240" y="30" as="targetPoint" />
          </mxGeometry>
        </mxCell>
        <mxCell id="CXLPsVcfpxoKWbiTp8Id-58" value="" style="endArrow=classic;html=1;rounded=0;exitX=1;exitY=0.5;exitDx=0;exitDy=0;entryX=0;entryY=0.75;entryDx=0;entryDy=0;" edge="1" parent="1" source="CXLPsVcfpxoKWbiTp8Id-3" target="CXLPsVcfpxoKWbiTp8Id-4">
          <mxGeometry width="50" height="50" relative="1" as="geometry">
            <mxPoint x="210" y="160" as="sourcePoint" />
            <mxPoint x="270" y="220" as="targetPoint" />
          </mxGeometry>
        </mxCell>
        <mxCell id="CXLPsVcfpxoKWbiTp8Id-60" style="edgeStyle=orthogonalEdgeStyle;rounded=0;orthogonalLoop=1;jettySize=auto;html=1;entryX=0.054;entryY=0.511;entryDx=0;entryDy=0;entryPerimeter=0;" edge="1" parent="1" source="CXLPsVcfpxoKWbiTp8Id-4" target="CXLPsVcfpxoKWbiTp8Id-39">
          <mxGeometry relative="1" as="geometry" />
        </mxCell>
        <mxCell id="CXLPsVcfpxoKWbiTp8Id-61" value="" style="endArrow=classic;html=1;rounded=0;entryX=0.002;entryY=0.504;entryDx=0;entryDy=0;entryPerimeter=0;exitX=1;exitY=0.25;exitDx=0;exitDy=0;" edge="1" parent="1" source="CXLPsVcfpxoKWbiTp8Id-4" target="CXLPsVcfpxoKWbiTp8Id-5">
          <mxGeometry width="50" height="50" relative="1" as="geometry">
            <mxPoint x="414" y="110" as="sourcePoint" />
            <mxPoint x="464" y="60" as="targetPoint" />
          </mxGeometry>
        </mxCell>
        <mxCell id="CXLPsVcfpxoKWbiTp8Id-62" value="" style="endArrow=classic;html=1;rounded=0;exitX=1;exitY=0.75;exitDx=0;exitDy=0;entryX=0.002;entryY=0.504;entryDx=0;entryDy=0;entryPerimeter=0;" edge="1" parent="1" source="CXLPsVcfpxoKWbiTp8Id-4" target="CXLPsVcfpxoKWbiTp8Id-45">
          <mxGeometry width="50" height="50" relative="1" as="geometry">
            <mxPoint x="430" y="200" as="sourcePoint" />
            <mxPoint x="480" y="150" as="targetPoint" />
          </mxGeometry>
        </mxCell>
      </root>
    </mxGraphModel>
  </diagram>
</mxfile>
